<svg width="83" height="83" viewBox="0 0 83 83" fill="none" xmlns="http://www.w3.org/2000/svg">
<g id="Capa_2" clip-path="url(#clip0_36_311)">
<g id="Group">
<path id="Vector" d="M41.47 82.94C64.3732 82.94 82.94 64.3732 82.94 41.47C82.94 18.5668 64.3732 0 41.47 0C18.5668 0 0 18.5668 0 41.47C0 64.3732 18.5668 82.94 41.47 82.94Z" fill="url(#paint0_linear_36_311)"/>
<path id="Vector_2" d="M41.47 78.79C62.0813 78.79 78.79 62.0813 78.79 41.47C78.79 20.8588 62.0813 4.15002 41.47 4.15002C20.8588 4.15002 4.15002 20.8588 4.15002 41.47C4.15002 62.0813 20.8588 78.79 41.47 78.79Z" fill="url(#paint1_linear_36_311)"/>
<path id="Vector_3" d="M41.47 69.46C56.9284 69.46 69.46 56.9284 69.46 41.47C69.46 26.0115 56.9284 13.48 41.47 13.48C26.0115 13.48 13.48 26.0115 13.48 41.47C13.48 56.9284 26.0115 69.46 41.47 69.46Z" fill="#E56B36"/>
</g>
<g id="Group_2" filter="url(#filter0_d_36_311)">
<path id="Vector_4" d="M44.31 24.18C44.81 23.95 43.56 21.51 41.58 22.31C39.51 23.15 39.44 26.04 39.3 27.48C39.16 28.92 37.77 30.39 37.77 30.39H46.15C46.15 30.39 44.71 29.3 44.17 27.47C43.63 25.64 43.67 24.47 44.31 24.17V24.18Z" fill="#689324"/>
<path id="Vector_5" d="M40.64 24.88C40.95 24.01 42.15 22.98 43.02 22.28C42.61 22.12 42.12 22.09 41.58 22.31C41.58 22.31 41.52 22.34 41.49 22.36C41.48 22.36 41.47 22.37 41.46 22.38C41.31 22.45 41.17 22.53 41.04 22.62C40.52 22.99 40.18 23.51 39.93 24.09C39.93 24.1 39.92 24.12 39.91 24.13C39.86 24.26 39.81 24.4 39.77 24.53C39.77 24.54 39.77 24.56 39.76 24.57C39.67 24.87 39.6 25.18 39.54 25.49C39.51 25.67 39.48 25.85 39.46 26.02V26.05C39.41 26.43 39.37 26.79 39.35 27.11C39.35 27.2 39.33 27.29 39.33 27.37C39.33 27.4 39.33 27.44 39.33 27.48C39.31 27.64 39.28 27.8 39.24 27.95C39.24 27.96 39.24 27.97 39.24 27.99C39.24 27.99 39.24 27.99 39.24 28C39.22 28.08 39.18 28.16 39.16 28.24C39.13 28.31 39.11 28.39 39.08 28.46C39.08 28.47 39.08 28.48 39.07 28.49C39.03 28.58 38.98 28.67 38.94 28.77C38.91 28.84 38.88 28.9 38.84 28.97C38.79 29.06 38.75 29.14 38.7 29.22C38.68 29.26 38.65 29.3 38.63 29.34H39.5C39.5 29.34 40.13 26.45 40.69 24.88H40.64Z" fill="#87B236"/>
<path id="Vector_6" d="M24.31 55.79C27.28 58.77 28.96 57.79 28.96 57.79C33.04 60.8 36.78 59.03 36.78 59.03C37.7 61.14 41.68 60.77 41.68 60.77C41.68 60.77 45.66 61.13 46.58 59.02C46.58 59.02 50.76 61.07 53.47 58.36C53.47 58.36 55.45 59.67 58.42 56.69C61.59 53.5 60.16 43.93 58.17 37.65C56.17 31.37 52.13 31.41 52.13 31.41C52.13 31.41 51.24 30.14 49.09 29.58C46.48 28.9 45.21 29.7 45.21 29.7C45.21 29.7 44.22 28.29 41.46 28.29C38.7 28.29 37.92 29.46 37.92 29.46C37.92 29.46 36.88 28.95 34.92 29.63C32.82 30.36 31.22 30.95 31.22 30.95C31.22 30.95 27.16 31.4 25.17 37.68C23.18 43.96 21.14 52.6 24.32 55.78L24.31 55.79Z" fill="#F6921E"/>
<path id="Vector_7" d="M58.16 37.6599C56.16 31.3799 52.1199 31.4199 52.1199 31.4199C52.1199 31.4199 51.23 30.1499 49.08 29.5899C46.47 28.9099 45.2 29.7099 45.2 29.7099C45.2 29.7099 44.21 28.2999 41.45 28.2999C38.69 28.2999 37.91 29.4699 37.91 29.4699C37.91 29.4699 36.87 28.9599 34.91 29.6399C32.8099 30.3699 31.2099 30.9599 31.2099 30.9599C31.2099 30.9599 27.15 31.4099 25.16 37.6899C24.92 38.4399 24.68 39.2299 24.45 40.0299C25.35 39.0899 27.4 36.9799 27.74 36.8599C28.19 36.7099 29.57 36.9299 29.83 35.1399C30.09 33.3499 31.8799 31.9299 31.8799 31.9299C30.7799 33.8899 30.84 35.6999 30.84 35.6999C30.84 35.6999 33.08 34.4299 33.97 34.9899C34.87 35.5499 36.18 41.4399 36.18 41.4399C36.18 41.4399 36.32 36.2199 36.77 34.0899C37.22 31.9599 38.18 30.3599 38.18 30.3599C37.18 32.8799 37.4399 35.5099 37.4399 35.5099C37.4399 35.5099 40.46 33.8299 42.33 35.0199C44.2 36.2099 46.36 41.2099 46.36 41.2099C46.36 35.9899 45.8699 31.5899 45.8699 31.5899C46.6899 33.2699 46.84 35.0999 46.84 35.0999C51.02 36.8099 54.4199 44.7599 54.4199 44.7599C54.5599 38.0799 52.54 33.0499 52.54 33.0499C52.54 33.0499 53.21 33.0899 54.74 34.3899C55.86 35.3399 57.84 38.4499 58.84 40.0599C58.6199 39.2299 58.39 38.4199 58.15 37.6699L58.16 37.6599Z" fill="#FCA659"/>
<path id="Vector_8" d="M47.8399 48.6499V50.5699C47.8399 50.8499 47.6499 51.0899 47.3799 51.1399L45.4599 51.5499C45.0999 51.6299 44.7499 51.3499 44.7499 50.9799V49.5199C43.7699 49.7099 42.7399 49.8299 41.6599 49.8399C40.5799 49.8399 39.5499 49.7099 38.5699 49.5299V50.9899C38.5699 51.3599 38.2299 51.6399 37.8699 51.5599L35.9399 51.1599C35.6699 51.0999 35.4699 50.8599 35.4799 50.5899V48.6799C32.3399 47.5299 30.2999 45.9499 30.2999 45.9499C32.6799 54.2699 37.4499 54.9599 41.6599 55.0799C45.8799 54.9499 50.6399 54.2499 53.0099 45.9299C53.0099 45.9299 50.9699 47.5199 47.8399 48.6699V48.6499Z" fill="#CC7221"/>
<path id="Vector_9" d="M37.87 52.8899L35.95 52.4899C35.68 52.4299 35.48 52.1899 35.48 51.9199V50.5799V50.0099C33.32 49.2199 31.7 48.2299 30.89 47.6899C33.41 54.3399 37.77 54.9499 41.66 55.0599C45.56 54.9399 49.91 54.3199 52.42 47.6699C51.61 48.2199 49.99 49.1999 47.84 49.9999V50.5699V51.9099C47.84 52.1899 47.65 52.4299 47.38 52.4799L45.46 52.8899C45.1 52.9699 44.75 52.6899 44.75 52.3199V50.9799V50.8599C43.77 51.0499 42.74 51.1699 41.67 51.1799C40.59 51.1799 39.56 51.0499 38.58 50.8699V50.9899V52.3299C38.58 52.6999 38.24 52.9799 37.87 52.8999V52.8899Z" fill="#1A1A1A"/>
<path id="Vector_10" d="M38.63 39.15C38.63 41.09 37.06 42.66 35.13 42.66C33.19 42.66 31.62 41.09 31.62 39.16C31.62 37.22 33.19 35.65 35.12 35.65C37.06 35.65 38.63 37.22 38.63 39.15Z" fill="#BF6710"/>
<path id="Vector_11" d="M35.08 37.54C33.5 37.54 32.17 38.59 31.73 40.02C32.11 41.54 33.49 42.67 35.13 42.67C36.71 42.67 38.04 41.62 38.48 40.19C38.1 38.67 36.72 37.54 35.08 37.54Z" fill="#1A1A1A"/>
<path id="Vector_12" d="M51.54 39.14C51.54 41.08 49.97 42.65 48.04 42.65C46.1 42.65 44.53 41.08 44.53 39.15C44.53 37.21 46.1 35.64 48.03 35.64C49.97 35.64 51.54 37.21 51.54 39.14Z" fill="#BF6710"/>
<path id="Vector_13" d="M47.99 37.52C46.41 37.52 45.08 38.57 44.64 40C45.02 41.52 46.4 42.65 48.04 42.65C49.62 42.65 50.95 41.6 51.39 40.17C51.01 38.65 49.63 37.52 47.99 37.52Z" fill="#1A1A1A"/>
</g>
</g>
<defs>
<filter id="filter0_d_36_311" x="17.0067" y="10.8195" width="71.6125" height="72.6455" filterUnits="userSpaceOnUse" color-interpolation-filters="sRGB">
<feFlood flood-opacity="0" result="BackgroundImageFix"/>
<feColorMatrix in="SourceAlpha" type="matrix" values="0 0 0 0 0 0 0 0 0 0 0 0 0 0 0 0 0 0 127 0" result="hardAlpha"/>
<feOffset dx="11.34" dy="5.67"/>
<feGaussianBlur stdDeviation="8.5"/>
<feColorMatrix type="matrix" values="0 0 0 0 0.898039 0 0 0 0 0.764706 0 0 0 0 0.603922 0 0 0 0.75 0"/>
<feBlend mode="normal" in2="BackgroundImageFix" result="effect1_dropShadow_36_311"/>
<feBlend mode="normal" in="SourceGraphic" in2="effect1_dropShadow_36_311" result="shape"/>
</filter>
<linearGradient id="paint0_linear_36_311" x1="-10.89" y1="9.35" x2="79.19" y2="64.61" gradientUnits="userSpaceOnUse">
<stop stop-color="#FEFEFD"/>
<stop offset="0.04" stop-color="#F9DFD4"/>
<stop offset="0.09" stop-color="#F4C4AF"/>
<stop offset="0.15" stop-color="#F0AB8E"/>
<stop offset="0.2" stop-color="#EC9772"/>
<stop offset="0.27" stop-color="#E9875C"/>
<stop offset="0.34" stop-color="#E77A4A"/>
<stop offset="0.44" stop-color="#E6713E"/>
<stop offset="0.57" stop-color="#E56C37"/>
<stop offset="0.9" stop-color="#E56B36"/>
</linearGradient>
<linearGradient id="paint1_linear_36_311" x1="13.12" y1="24.08" x2="76.76" y2="63.12" gradientUnits="userSpaceOnUse">
<stop stop-color="#E56B20"/>
<stop offset="0.26" stop-color="#E97529"/>
<stop offset="0.71" stop-color="#F39044"/>
<stop offset="1" stop-color="#FCA659"/>
</linearGradient>
<clipPath id="clip0_36_311">
<rect width="83" height="83" fill="white"/>
</clipPath>
</defs>
</svg>
