<svg width="84" height="84" viewBox="0 0 84 84" fill="none" xmlns="http://www.w3.org/2000/svg">
<g id="Capa_2" clip-path="url(#clip0_36_39)">
<g id="Group">
<path id="Vector" d="M41.76 83.52C64.8234 83.52 83.52 64.8234 83.52 41.76C83.52 18.6966 64.8234 0 41.76 0C18.6966 0 0 18.6966 0 41.76C0 64.8234 18.6966 83.52 41.76 83.52Z" fill="url(#paint0_linear_36_39)"/>
<path id="Vector_2" d="M41.7601 79.34C62.5149 79.34 79.34 62.5149 79.34 41.7601C79.34 21.0052 62.5149 4.18005 41.7601 4.18005C21.0052 4.18005 4.18005 21.0052 4.18005 41.7601C4.18005 62.5149 21.0052 79.34 41.7601 79.34Z" fill="url(#paint1_linear_36_39)"/>
<path id="Vector_3" d="M41.7599 69.9499C57.3288 69.9499 69.9499 57.3288 69.9499 41.7599C69.9499 26.191 57.3288 13.5699 41.7599 13.5699C26.191 13.5699 13.5699 26.191 13.5699 41.7599C13.5699 57.3288 26.191 69.9499 41.7599 69.9499Z" fill="#333333"/>
</g>
<g id="Group_2" filter="url(#filter0_d_36_39)">
<path id="Vector_4" d="M44.6199 24.34C45.1199 24.11 43.8599 21.65 41.8699 22.46C39.7899 23.3 39.7199 26.21 39.5799 27.67C39.4399 29.12 38.0399 30.6 38.0399 30.6H46.4799C46.4799 30.6 45.0299 29.5 44.4899 27.66C43.9399 25.82 43.9899 24.64 44.6299 24.34H44.6199Z" fill="#689324"/>
<path id="Vector_5" d="M40.9199 25.05C41.2299 24.17 42.4399 23.14 43.3199 22.43C42.8999 22.27 42.4199 22.24 41.8699 22.46C41.8699 22.46 41.8099 22.49 41.7799 22.51C41.7699 22.51 41.7599 22.52 41.7499 22.53C41.5999 22.6 41.4599 22.68 41.3299 22.78C40.8099 23.15 40.4599 23.67 40.2099 24.26C40.2099 24.27 40.1999 24.29 40.1899 24.3C40.1399 24.43 40.0899 24.57 40.0399 24.7C40.0399 24.71 40.0399 24.73 40.0299 24.74C39.9399 25.04 39.8699 25.36 39.8099 25.66C39.7799 25.84 39.7499 26.02 39.7299 26.2V26.23C39.6799 26.61 39.6399 26.97 39.6199 27.29C39.6199 27.38 39.5999 27.47 39.5999 27.55C39.5999 27.58 39.5999 27.62 39.5999 27.66C39.5799 27.82 39.5499 27.98 39.5099 28.14C39.5099 28.15 39.5099 28.16 39.5099 28.18C39.5099 28.18 39.5099 28.18 39.5099 28.19C39.4899 28.27 39.4499 28.35 39.4299 28.43C39.3999 28.5 39.3799 28.58 39.3499 28.65C39.3499 28.66 39.3499 28.67 39.3399 28.68C39.2999 28.78 39.2499 28.87 39.2099 28.96C39.1799 29.03 39.1399 29.1 39.1099 29.16C39.0599 29.25 39.0199 29.33 38.9699 29.41C38.9499 29.45 38.9199 29.49 38.8999 29.53H39.7799C39.7799 29.53 40.4199 26.62 40.9799 25.04L40.9199 25.05Z" fill="#87B236"/>
<path id="Vector_6" d="M24.48 56.17C27.47 59.17 29.16 58.19 29.16 58.19C33.27 61.22 37.04 59.44 37.04 59.44C37.97 61.56 41.98 61.19 41.98 61.19C41.98 61.19 45.99 61.55 46.91 59.43C46.91 59.43 51.12 61.49 53.84 58.77C53.84 58.77 55.84 60.09 58.82 57.09C62.0099 53.88 60.58 44.24 58.56 37.92C56.55 31.6 52.47 31.63 52.47 31.63C52.47 31.63 51.58 30.35 49.41 29.78C46.78 29.09 45.5 29.9 45.5 29.9C45.5 29.9 44.5 28.48 41.72 28.48C38.94 28.48 38.15 29.66 38.15 29.66C38.15 29.66 37.1 29.15 35.13 29.83C33.01 30.56 31.4 31.16 31.4 31.16C31.4 31.16 27.31 31.62 25.31 37.94C23.31 44.26 21.26 52.96 24.46 56.17H24.48Z" fill="#F6921E"/>
<path id="Vector_7" d="M58.57 37.92C56.56 31.6 52.48 31.63 52.48 31.63C52.48 31.63 51.59 30.35 49.42 29.78C46.79 29.09 45.51 29.9 45.51 29.9C45.51 29.9 44.51 28.48 41.73 28.48C38.95 28.48 38.16 29.66 38.16 29.66C38.16 29.66 37.11 29.15 35.14 29.83C33.02 30.56 31.41 31.16 31.41 31.16C31.41 31.16 27.32 31.62 25.32 37.94C25.08 38.7 24.84 39.49 24.61 40.3C25.52 39.35 27.58 37.23 27.93 37.11C28.38 36.96 29.77 37.18 30.03 35.38C30.29 33.58 32.09 32.15 32.09 32.15C30.99 34.12 31.04 35.94 31.04 35.94C31.04 35.94 33.29 34.66 34.19 35.22C35.09 35.78 36.41 41.72 36.41 41.72C36.41 41.72 36.56 36.46 37 34.32C37.45 32.18 38.42 30.56 38.42 30.56C37.42 33.09 37.67 35.74 37.67 35.74C37.67 35.74 40.71 34.05 42.59 35.25C44.47 36.45 46.65 41.48 46.65 41.48C46.65 36.22 46.15 31.79 46.15 31.79C46.98 33.48 47.13 35.32 47.13 35.32C51.34 37.04 54.77 45.04 54.77 45.04C54.91 38.32 52.88 33.25 52.88 33.25C52.88 33.25 53.56 33.29 55.1 34.6C56.22 35.56 58.22 38.68 59.23 40.31C59.01 39.47 58.78 38.66 58.54 37.9L58.57 37.92Z" fill="#FCA659"/>
<path id="Vector_8" d="M48.17 48.98V50.91C48.17 51.19 47.98 51.43 47.7 51.49L45.76 51.9C45.39 51.98 45.05 51.7 45.05 51.32V49.85C44.06 50.04 43.03 50.16 41.94 50.17C40.86 50.17 39.82 50.04 38.83 49.86V51.33C38.83 51.7 38.49 51.99 38.12 51.91L36.18 51.5C35.91 51.44 35.71 51.2 35.71 50.92V48.99C32.55 47.83 30.49 46.24 30.49 46.24C32.89 54.61 37.68 55.31 41.93 55.43C46.18 55.3 50.97 54.6 53.36 46.22C53.36 46.22 51.31 47.82 48.15 48.98H48.17Z" fill="#CC7221"/>
<path id="Vector_9" d="M38.13 53.26L36.19 52.85C35.92 52.79 35.72 52.55 35.72 52.27V50.92V50.34C33.55 49.54 31.92 48.55 31.1 48C33.64 54.7 38.02 55.31 41.95 55.43C45.87 55.31 50.26 54.69 52.79 47.98C51.97 48.53 50.35 49.53 48.17 50.33V50.91V52.26C48.17 52.54 47.98 52.78 47.7 52.84L45.76 53.25C45.39 53.33 45.05 53.05 45.05 52.67V51.32V51.2C44.07 51.39 43.03 51.51 41.94 51.52C40.86 51.52 39.82 51.39 38.83 51.21V51.33V52.68C38.83 53.05 38.49 53.33 38.12 53.26H38.13Z" fill="#1A1A1A"/>
<path id="Vector_10" d="M38.89 39.43C38.89 41.38 37.31 42.96 35.36 42.96C33.41 42.96 31.83 41.38 31.83 39.43C31.83 37.48 33.41 35.9 35.36 35.9C37.31 35.9 38.89 37.48 38.89 39.43Z" fill="#BF6710"/>
<path id="Vector_11" d="M35.32 37.8C33.73 37.8 32.39 38.85 31.95 40.3C32.34 41.83 33.7199 42.97 35.3699 42.96C36.9599 42.96 38.3 41.91 38.74 40.46C38.35 38.93 36.97 37.79 35.32 37.8Z" fill="#1A1A1A"/>
<path id="Vector_12" d="M51.9 39.41C51.9 41.36 50.32 42.94 48.37 42.94C46.42 42.94 44.84 41.36 44.84 39.41C44.84 37.46 46.42 35.88 48.37 35.88C50.32 35.88 51.9 37.46 51.9 39.41Z" fill="#BF6710"/>
<path id="Vector_13" d="M48.32 37.78C46.73 37.78 45.39 38.83 44.95 40.28C45.34 41.81 46.7199 42.95 48.3699 42.94C49.9599 42.94 51.3 41.89 51.74 40.44C51.35 38.91 49.97 37.77 48.32 37.78Z" fill="#1A1A1A"/>
</g>
</g>
<defs>
<filter id="filter0_d_36_39" x="17.1353" y="10.967" width="71.8978" height="72.9177" filterUnits="userSpaceOnUse" color-interpolation-filters="sRGB">
<feFlood flood-opacity="0" result="BackgroundImageFix"/>
<feColorMatrix in="SourceAlpha" type="matrix" values="0 0 0 0 0 0 0 0 0 0 0 0 0 0 0 0 0 0 127 0" result="hardAlpha"/>
<feOffset dx="11.34" dy="5.67"/>
<feGaussianBlur stdDeviation="8.5"/>
<feColorMatrix type="matrix" values="0 0 0 0 0.898039 0 0 0 0 0.764706 0 0 0 0 0.603922 0 0 0 0.15 0"/>
<feBlend mode="normal" in2="BackgroundImageFix" result="effect1_dropShadow_36_39"/>
<feBlend mode="normal" in="SourceGraphic" in2="effect1_dropShadow_36_39" result="shape"/>
</filter>
<linearGradient id="paint0_linear_36_39" x1="-10.97" y1="9.41" x2="79.73" y2="65.05" gradientUnits="userSpaceOnUse">
<stop stop-color="#999999"/>
<stop offset="0.22" stop-color="#6A6A6A"/>
<stop offset="0.47" stop-color="#3C3C3C"/>
<stop offset="0.69" stop-color="#1B1B1B"/>
<stop offset="0.88" stop-color="#070707"/>
<stop offset="1"/>
</linearGradient>
<linearGradient id="paint1_linear_36_39" x1="13.2101" y1="24.2501" x2="77.2901" y2="63.55" gradientUnits="userSpaceOnUse">
<stop stop-color="#1A1A1A"/>
<stop offset="0.22" stop-color="#1D1D1D"/>
<stop offset="0.4" stop-color="#262626"/>
<stop offset="0.55" stop-color="#373737"/>
<stop offset="0.7" stop-color="#4E4E4E"/>
<stop offset="0.84" stop-color="#6C6C6C"/>
<stop offset="0.98" stop-color="#919191"/>
<stop offset="1" stop-color="#999999"/>
</linearGradient>
<clipPath id="clip0_36_39">
<rect width="84" height="84" fill="white"/>
</clipPath>
</defs>
</svg>
